<?xml version="1.0" encoding="UTF-8" standalone="no" ?>
<svg xmlns="http://www.w3.org/2000/svg" xmlns:xlink="http://www.w3.org/1999/xlink" version="1.1" width="1080" height="1080" viewBox="0 0 1080 1080" xml:space="preserve">

 <g transform="matrix(-1 0 0 -1 359.2 465.17)">
  <path style="stroke: none; stroke-width: 1; stroke-dasharray: none; stroke-linecap: butt; stroke-dashoffset: 0; stroke-linejoin: miter; stroke-miterlimit: 4; fill: rgb(217,219,223); fill-rule: nonzero; opacity: 1;" vector-effect="non-scaling-stroke"  transform=" translate(-690.79, -582.73)" d="M 737.5 405 C 746.295 403.681 752.486 407.187 757 414.5 C 757 414.5 926 739.5 926 739.5 C 927.79 747.598 921.673 757.424 913.5 759 C 901.081 761.395 797.571 761.244 784.5 759 C 776.871 757.69 771.194 751.308 768 744.5 C 768 744.5 718.5 629 718.5 629 C 718.5 629 619 746.5 619 746.5 C 615.755 749.813 609.765 756.69 605.5 758 C 597.629 760.417 481.501 760.857 470.5 759 C 457.253 756.764 450.601 741.429 459 730.5 C 546.708 631.771 625.534 524.476 714 426.5 C 719.452 420.462 729.978 406.128 737.5 405 Z" stroke-linecap="round"/>
 </g>

 <g transform="matrix(1 0 0 1 537.3 540)">
  <path style="stroke: none; stroke-width: 1; stroke-dasharray: none; stroke-linecap: butt; stroke-dashoffset: 0; stroke-linejoin: miter; stroke-miterlimit: 4; fill: rgb(216,218,221); fill-rule: nonzero; opacity: 1;" vector-effect="non-scaling-stroke"  transform=" translate(-506.29, -510.8)" d="M 645.5 247 C 657.611 244.791 667.697 248.882 675 258.5 C 680.306 265.489 717.595 336.585 720 344.5 C 722.28 352.004 722.056 359.169 719 366.5 C 719 366.5 384 764.5 384 764.5 C 370.125 780.06 352.016 778.227 340 761.5 C 332.629 751.24 296.75 682.93 293 671.5 C 290.231 663.059 290.299 655.528 294 647.5 C 294 647.5 635.5 252 635.5 252 C 638.476 250.813 642.42 247.562 645.5 247 Z" stroke-linecap="round"/>
 </g>

 <g transform="matrix(1 0 0 1 721.8 611.94)">
  <path style="stroke: none; stroke-width: 1; stroke-dasharray: none; stroke-linecap: butt; stroke-dashoffset: 0; stroke-linejoin: miter; stroke-miterlimit: 4; fill: rgb(217,219,223); fill-rule: nonzero; opacity: 1;" vector-effect="non-scaling-stroke"  transform=" translate(-690.79, -582.73)" d="M 737.5 405 C 746.295 403.681 752.486 407.187 757 414.5 C 757 414.5 926 739.5 926 739.5 C 927.79 747.598 921.673 757.424 913.5 759 C 901.081 761.395 797.571 761.244 784.5 759 C 776.871 757.69 771.194 751.308 768 744.5 C 768 744.5 718.5 629 718.5 629 C 718.5 629 619 746.5 619 746.5 C 615.755 749.813 609.765 756.69 605.5 758 C 597.629 760.417 481.501 760.857 470.5 759 C 457.253 756.764 450.601 741.429 459 730.5 C 546.708 631.771 625.534 524.476 714 426.5 C 719.452 420.462 729.978 406.128 737.5 405 Z" stroke-linecap="round"/>
 </g>
</svg>
